# xmcd CD database file
#
# Track frame offsets:
#	182
#	27935
#	54437
#	91185
#	112350
#	146285
#	186317
#	207757
#	233025
#	264722
#	297742
#
# Disc length: 4280 seconds
#
# Revision: 0
# Processed by: cddbd v1.5.2PL0 Copyright (c) Steve Scherf et al.
# Submitted via: CDex 1.51
#
DISCID=a510b60b
DTITLE=Jack McDuff - Groovin'
DYEAR=1999
DGENRE=Jazz
TTITLE0=Cap'n Jack
TTITLE1=One Hundred Ways
TTITLE2=Walking The Dog
TTITLE3=Laura
TTITLE4=Another Real Good Un
TTITLE5=Summertime
TTITLE6=Off The Beaten Path
TTITLE7=Long Day Blues
TTITLE8=Rock Candy
TTITLE9=I Can't Get Started
TTITLE10=I Cover The Waterfront
EXTD=YEAR: 1999
EXTT0=
EXTT1=
EXTT2=
EXTT3=
EXTT4=
EXTT5=
EXTT6=
EXTT7=
EXTT8=
EXTT9=
EXTT10=
PLAYORDER=
